<?xml version="1.0" encoding="UTF-8" standalone="no"?><svg xmlns:svg="http://www.w3.org/2000/svg" xmlns="http://www.w3.org/2000/svg" xmlns:xlink="http://www.w3.org/1999/xlink" version="1.0" width="64px" height="64px" viewBox="0 0 128 128" xml:space="preserve"><g><path d="M82.4 32.2a37.52 37.52 0 0 0-55 25.13L16.97 42.97.92 52.44A64.42 64.42 0 0 1 101.07 12.2l-.26 17.93z" fill="#ffffff"/><path d="M82.4 32.2a37.52 37.52 0 0 0-55 25.13L16.97 42.97.92 52.44A64.42 64.42 0 0 1 101.07 12.2l-.26 17.93z" fill="#ffffff" transform="rotate(120 64 64)"/><path d="M82.4 32.2a37.52 37.52 0 0 0-55 25.13L16.97 42.97.92 52.44A64.42 64.42 0 0 1 101.07 12.2l-.26 17.93z" fill="white" transform="rotate(240 64 64)"/><animateTransform attributeName="transform" type="rotate" from="0 64 64" to="120 64 64" dur="1080ms" repeatCount="indefinite"></animateTransform></g></svg>