<svg xmlns="http://www.w3.org/2000/svg" xmlns:svg="http://www.w3.org/2000/svg" xmlns:xlink="http://www.w3.org/1999/xlink" width="64" height="64" version="1.0" viewBox="0 0 128 128" xml:space="preserve"><g><path fill="#fff" d="M82.4 32.2a37.52 37.52 0 0 0-55 25.13L16.97 42.97.92 52.44A64.42 64.42 0 0 1 101.07 12.2l-.26 17.93z"/><path fill="#fff" d="M82.4 32.2a37.52 37.52 0 0 0-55 25.13L16.97 42.97.92 52.44A64.42 64.42 0 0 1 101.07 12.2l-.26 17.93z" transform="rotate(120 64 64)"/><path fill="#fff" d="M82.4 32.2a37.52 37.52 0 0 0-55 25.13L16.97 42.97.92 52.44A64.42 64.42 0 0 1 101.07 12.2l-.26 17.93z" transform="rotate(240 64 64)"/><animateTransform attributeName="transform" dur="1080ms" from="0 64 64" repeatCount="indefinite" to="120 64 64" type="rotate"/></g></svg>